<svg xmlns="http://www.w3.org/2000/svg" xmlns:xlink="http://www.w3.org/1999/xlink" width="500" zoomAndPan="magnify" viewBox="0 0 375 374.999991" height="500" preserveAspectRatio="xMidYMid meet" version="1.0"><defs><g/></defs><rect x="-37.5" width="450" fill="#ffffff" y="-37.499999" height="449.999989" fill-opacity="1"/><rect x="-37.5" width="450" fill="#ffffff" y="-37.499999" height="449.999989" fill-opacity="1"/><g fill="#4b5ae4" fill-opacity="1"><g transform="translate(42.370006, 283.590059)"><g><path d="M 2.90625 -115.40625 L 78.28125 -115.40625 L 78.28125 -95.390625 C 78.28125 -89.015625 79.828125 -83.941406 82.921875 -80.171875 C 86.015625 -76.398438 89.832031 -73.882812 94.375 -72.625 C 98.914062 -71.375 103.503906 -71.425781 108.140625 -72.78125 C 112.785156 -74.132812 116.65625 -76.742188 119.75 -80.609375 C 122.84375 -84.472656 124.390625 -89.59375 124.390625 -95.96875 L 124.390625 -202.96875 L 199.78125 -202.96875 L 199.78125 -95.109375 C 199.78125 -75.390625 195.71875 -57.941406 187.59375 -42.765625 C 179.476562 -27.585938 168.023438 -15.695312 153.234375 -7.09375 C 138.453125 1.5 121.203125 5.796875 101.484375 5.796875 C 81.960938 5.796875 64.804688 1.976562 50.015625 -5.65625 C 35.222656 -13.289062 23.671875 -24.691406 15.359375 -39.859375 C 7.054688 -55.035156 2.90625 -73.835938 2.90625 -96.265625 Z M 2.90625 -115.40625 "/></g></g></g><path stroke-linecap="butt" transform="matrix(1.779014, 0, 0, 1.779014, 184.417596, 11.567591)" fill="none" stroke-linejoin="miter" d="M 80.11172 40.943265 L 80.11172 68.464649 L 61.368899 68.464649 C 60.268834 68.464649 59.717703 68.976256 59.717703 69.99947 L 80.11172 69.99947 L 80.11172 97.665772 L 59.717703 97.665772 L 59.717703 123.999261 L 30.51658 123.999261 L 30.51658 71.303738 C 30.51658 65.142497 31.838415 59.81344 34.484279 55.312177 C 37.130144 50.793347 40.829963 47.269187 45.579345 44.739697 C 50.330922 42.208011 55.747809 40.943265 61.832199 40.943265 Z M 80.11172 40.943265 " stroke="#ffffff" stroke-width="8.900025" stroke-opacity="1" stroke-miterlimit="4"/><g fill="#4b5ae4" fill-opacity="1"><g transform="translate(236.592752, 232.165377)"><g><path d="M 90.34375 -147.765625 L 90.34375 -98.796875 L 57 -98.796875 C 55.03125 -98.796875 54.046875 -97.878906 54.046875 -96.046875 L 90.34375 -96.046875 L 90.34375 -46.859375 L 54.046875 -46.859375 L 54.046875 0 L 2.109375 0 L 2.109375 -93.71875 C 2.109375 -104.695312 4.460938 -114.195312 9.171875 -122.21875 C 13.890625 -130.238281 20.46875 -136.5 28.90625 -141 C 37.351562 -145.507812 47 -147.765625 57.84375 -147.765625 Z M 90.34375 -147.765625 "/></g></g></g></svg>