<svg xmlns="http://www.w3.org/2000/svg" xmlns:xlink="http://www.w3.org/1999/xlink" width="500" zoomAndPan="magnify" viewBox="0 0 375 374.999991" height="500" preserveAspectRatio="xMidYMid meet" version="1.0"><defs><g/></defs><rect x="-37.5" width="450" fill="#ffffff" y="-37.499999" height="449.999989" fill-opacity="1"/><rect x="-37.5" width="450" fill="#4b5ae4" y="-37.499999" height="449.999989" fill-opacity="1"/><g fill="#ffffff" fill-opacity="1"><g transform="translate(33.498296, 297.732432)"><g><path d="M 2.84375 -113.109375 L 76.734375 -113.109375 L 76.734375 -93.5 C 76.734375 -87.25 78.25 -82.273438 81.28125 -78.578125 C 84.3125 -74.890625 88.050781 -72.425781 92.5 -71.1875 C 96.957031 -69.957031 101.457031 -70.003906 106 -71.328125 C 110.550781 -72.660156 114.34375 -75.21875 117.375 -79 C 120.40625 -82.789062 121.921875 -87.816406 121.921875 -94.078125 L 121.921875 -198.9375 L 195.8125 -198.9375 L 195.8125 -93.21875 C 195.8125 -73.894531 191.832031 -56.796875 183.875 -41.921875 C 175.914062 -27.046875 164.6875 -15.390625 150.1875 -6.953125 C 135.695312 1.472656 118.789062 5.6875 99.46875 5.6875 C 80.332031 5.6875 63.515625 1.945312 49.015625 -5.53125 C 34.523438 -13.019531 23.207031 -24.203125 15.0625 -39.078125 C 6.914062 -53.953125 2.84375 -72.378906 2.84375 -94.359375 Z M 2.84375 -113.109375 "/></g></g></g><path stroke-linecap="butt" transform="matrix(0.75, 0, 0, 0.75, 174.493104, 25.767098)" fill="none" stroke-linejoin="miter" d="M 186.290457 95.899084 L 186.290457 159.883463 L 142.712329 159.883463 C 140.149829 159.883463 138.873787 161.070963 138.873787 163.451172 L 186.290457 163.451172 L 186.290457 227.774093 L 138.873787 227.774093 L 138.873787 288.998055 L 70.977949 288.998055 L 70.977949 166.482422 C 70.977949 152.159504 74.056074 139.768879 80.207116 129.305336 C 86.358158 118.800127 94.957117 110.60221 106.003993 104.722001 C 117.050869 98.836584 129.64462 95.899084 143.790454 95.899084 Z M 186.290457 95.899084 " stroke="#4b5ae4" stroke-width="20.691151" stroke-opacity="1" stroke-miterlimit="4"/><g fill="#ffffff" fill-opacity="1"><g transform="translate(225.657163, 242.517084)"><g><path d="M 88.5625 -144.828125 L 88.5625 -96.828125 L 55.859375 -96.828125 C 53.929688 -96.828125 52.96875 -95.929688 52.96875 -94.140625 L 88.5625 -94.140625 L 88.5625 -45.9375 L 52.96875 -45.9375 L 52.96875 0 L 2.0625 0 L 2.0625 -91.859375 C 2.0625 -102.617188 4.375 -111.929688 9 -119.796875 C 13.625 -127.660156 20.070312 -133.796875 28.34375 -138.203125 C 36.625 -142.617188 46.070312 -144.828125 56.6875 -144.828125 Z M 88.5625 -144.828125 "/></g></g></g></svg>